<svg width="962" height="947" viewBox="0 0 962 947" fill="none" xmlns="http://www.w3.org/2000/svg">
<path fill-rule="evenodd" clip-rule="evenodd" d="M583.216 657.607C652.664 587.687 789.035 449.868 858.723 378.548C928.412 307.128 931.297 302.288 935.065 294.088C938.813 285.968 943.363 274.468 946.73 262.828C950.017 251.268 952.122 239.468 953.144 226.908C954.166 214.328 954.166 200.968 953.144 186.968C952.122 172.988 950.017 158.548 946.49 145.188C942.962 131.828 937.952 119.708 929.975 107.048C922.058 94.4084 911.095 81.2684 900.913 70.8084C890.752 60.2485 881.351 52.3685 869.686 44.0085C858.102 35.6485 844.232 26.8285 830.543 20.1086C816.834 13.4686 803.205 8.8486 788.112 5.64861C772.92 2.36862 756.165 0.408641 739.088 0.88864C722.112 1.26864 704.795 4.00857 688.28 9.32856C671.845 14.7085 656.172 22.5286 640.839 34.2485C625.566 45.8885 610.614 61.3484 595.983 76.4284C581.412 91.5083 567.162 106.108 554.876 119.248C542.59 132.368 532.408 144.008 524.19 152.768C516.033 161.588 509.94 167.528 503.827 171.828C497.714 176.188 491.681 179.008 485.748 179.248C479.876 179.548 474.224 177.288 465.465 170.488C456.767 163.608 445.022 152.128 432.896 139.408C420.75 126.588 408.304 112.528 395.156 98.3884C382.008 84.3284 368.138 70.2484 353.046 57.6085C337.933 44.9485 321.639 33.7685 305.044 24.7085C288.528 15.6486 271.773 8.68855 254.235 4.62856C236.778 0.56857 218.459 -0.671354 199.038 0.328643C179.536 1.26864 158.952 4.46861 140.874 10.6486C122.775 16.9086 107.282 26.1085 92.7916 36.1085C78.3007 46.0485 64.912 56.6685 52.9466 70.3285C40.961 84.0084 30.3984 100.728 23.0428 120.888C15.6069 140.968 11.2977 164.468 9.73439 187.208C8.09089 209.948 9.25362 231.908 15.1261 253.608C20.9986 275.408 31.6414 296.968 44.9498 316.268C58.2581 335.488 74.152 352.528 92.6313 371.108C111.111 389.708 132.175 409.868 191.281 469.087C250.307 528.307 347.394 626.507 399.064 678.227C450.814 729.867 457.168 735.027 463.501 738.227C469.775 741.507 476.028 742.907 482.061 742.367C488.094 741.907 493.886 739.547 498.355 737.447C502.725 735.247 505.791 733.387 508.517 731.427C511.263 729.467 513.768 727.527 583.216 657.607Z" fill="#5E2758"/>
<path fill-rule="evenodd" clip-rule="evenodd" d="M67.5778 470.188C134.52 538.467 268.485 674.627 335.428 743.687C402.29 812.767 402.13 814.627 400.707 818.547C399.304 822.447 396.638 828.387 391.247 838.147C385.835 847.907 377.698 861.507 366.414 874.707C355.15 887.907 340.739 900.727 323.763 911.267C306.847 921.827 287.266 930.107 267.223 935.327C247.18 940.567 226.677 942.767 207.957 942.767C189.257 942.767 172.341 940.567 153.24 933.607C134.139 926.667 112.834 914.947 93.1119 899.707C73.3698 884.467 55.2115 865.727 41.5825 845.887C27.9735 826.047 18.8937 805.107 13.9632 791.267C9.01265 777.447 8.23132 770.727 6.66799 708.607C5.10466 646.587 2.75975 529.088 1.49706 469.168C0.174243 409.248 -0.0663721 406.828 0.0137987 405.028C0.0137987 403.228 0.494515 402.048 0.574686 401.748C0.714985 401.348 0.63517 401.828 67.5778 470.188Z" fill="#5E2758"/>
<path fill-rule="evenodd" clip-rule="evenodd" d="M894.42 474.088C827.477 542.368 693.532 678.607 626.589 747.687C559.727 816.667 559.887 818.547 561.29 822.447C562.693 826.347 565.358 832.287 570.77 842.047C576.161 851.827 584.319 865.407 595.583 878.607C606.787 891.827 621.177 904.627 638.174 915.187C655.17 925.727 674.732 934.007 694.774 939.247C714.817 944.467 735.341 946.667 754.041 946.667C772.76 946.667 789.676 944.467 808.777 937.527C827.878 930.567 849.163 918.847 868.905 903.607C888.627 888.387 906.786 869.627 920.415 849.787C934.044 829.947 943.123 809.007 948.054 795.187C952.984 781.347 953.766 774.627 955.329 712.607C956.893 650.487 959.258 533.068 960.5 473.148C961.823 413.228 962.064 410.808 961.984 409.008C961.984 407.128 961.522 405.968 961.362 405.648C961.282 405.248 961.362 405.728 894.42 474.088Z" fill="#5E2758"/>
</svg>
